<svg id="visual" viewBox="0 0 900 600" width="900" height="600" xmlns="http://www.w3.org/2000/svg" xmlns:xlink="http://www.w3.org/1999/xlink" version="1.1"><rect x="0" y="0" width="900" height="600" fill="#FFFFFF"></rect><defs><linearGradient id="grad1_0" x1="33.3%" y1="0%" x2="100%" y2="100%"><stop offset="20%" stop-color="#068fff" stop-opacity="1"></stop><stop offset="80%" stop-color="#068fff" stop-opacity="1"></stop></linearGradient></defs><defs><linearGradient id="grad1_1" x1="33.3%" y1="0%" x2="100%" y2="100%"><stop offset="20%" stop-color="#068fff" stop-opacity="1"></stop><stop offset="80%" stop-color="#76a9ff" stop-opacity="1"></stop></linearGradient></defs><defs><linearGradient id="grad1_2" x1="33.3%" y1="0%" x2="100%" y2="100%"><stop offset="20%" stop-color="#abc5ff" stop-opacity="1"></stop><stop offset="80%" stop-color="#76a9ff" stop-opacity="1"></stop></linearGradient></defs><defs><linearGradient id="grad1_3" x1="33.3%" y1="0%" x2="100%" y2="100%"><stop offset="20%" stop-color="#abc5ff" stop-opacity="1"></stop><stop offset="80%" stop-color="#d7e1ff" stop-opacity="1"></stop></linearGradient></defs><defs><linearGradient id="grad1_4" x1="33.3%" y1="0%" x2="100%" y2="100%"><stop offset="20%" stop-color="#ffffff" stop-opacity="1"></stop><stop offset="80%" stop-color="#d7e1ff" stop-opacity="1"></stop></linearGradient></defs><defs><linearGradient id="grad2_0" x1="0%" y1="0%" x2="66.7%" y2="100%"><stop offset="20%" stop-color="#068fff" stop-opacity="1"></stop><stop offset="80%" stop-color="#068fff" stop-opacity="1"></stop></linearGradient></defs><defs><linearGradient id="grad2_1" x1="0%" y1="0%" x2="66.7%" y2="100%"><stop offset="20%" stop-color="#76a9ff" stop-opacity="1"></stop><stop offset="80%" stop-color="#068fff" stop-opacity="1"></stop></linearGradient></defs><defs><linearGradient id="grad2_2" x1="0%" y1="0%" x2="66.7%" y2="100%"><stop offset="20%" stop-color="#76a9ff" stop-opacity="1"></stop><stop offset="80%" stop-color="#abc5ff" stop-opacity="1"></stop></linearGradient></defs><defs><linearGradient id="grad2_3" x1="0%" y1="0%" x2="66.7%" y2="100%"><stop offset="20%" stop-color="#d7e1ff" stop-opacity="1"></stop><stop offset="80%" stop-color="#abc5ff" stop-opacity="1"></stop></linearGradient></defs><defs><linearGradient id="grad2_4" x1="0%" y1="0%" x2="66.7%" y2="100%"><stop offset="20%" stop-color="#d7e1ff" stop-opacity="1"></stop><stop offset="80%" stop-color="#ffffff" stop-opacity="1"></stop></linearGradient></defs><g transform="translate(900, 0)"><path d="M0 432.7C-58.4 428.5 -116.9 424.3 -165.6 399.7C-214.3 375.2 -253.2 330.3 -287.1 287.1C-321 243.8 -349.8 202.2 -373.2 154.6C-396.7 107 -414.7 53.5 -432.7 0L0 0Z" fill="#ebf0ff"></path><path d="M0 346.1C-46.8 342.8 -93.5 339.4 -132.5 319.8C-171.4 300.2 -202.6 264.3 -229.7 229.7C-256.8 195.1 -279.9 161.7 -298.6 123.7C-317.3 85.6 -331.7 42.8 -346.1 0L0 0Z" fill="#c1d3ff"></path><path d="M0 259.6C-35.1 257.1 -70.1 254.6 -99.3 239.8C-128.6 225.1 -151.9 198.2 -172.3 172.3C-192.6 146.3 -209.9 121.3 -223.9 92.8C-238 64.2 -248.8 32.1 -259.6 0L0 0Z" fill="#92b7ff"></path><path d="M0 173.1C-23.4 171.4 -46.8 169.7 -66.2 159.9C-85.7 150.1 -101.3 132.1 -114.8 114.8C-128.4 97.5 -139.9 80.9 -149.3 61.8C-158.7 42.8 -165.9 21.4 -173.1 0L0 0Z" fill="#539cff"></path><path d="M0 86.5C-11.7 85.7 -23.4 84.9 -33.1 79.9C-42.9 75 -50.6 66.1 -57.4 57.4C-64.2 48.8 -70 40.4 -74.6 30.9C-79.3 21.4 -82.9 10.7 -86.5 0L0 0Z" fill="#068fff"></path></g><g transform="translate(0, 600)"><path d="M0 -432.7C57.5 -427.5 114.9 -422.3 165.6 -399.7C216.2 -377.2 260 -337.3 294.2 -294.2C328.3 -251 352.7 -204.6 374.2 -155C395.6 -105.4 414.2 -52.7 432.7 0L0 0Z" fill="#ebf0ff"></path><path d="M0 -346.1C46 -342 91.9 -337.8 132.5 -319.8C173 -301.8 208 -269.9 235.3 -235.3C262.6 -200.8 282.2 -163.6 299.3 -124C316.5 -84.3 331.3 -42.2 346.1 0L0 0Z" fill="#c1d3ff"></path><path d="M0 -259.6C34.5 -256.5 69 -253.4 99.3 -239.8C129.7 -226.3 156 -202.4 176.5 -176.5C197 -150.6 211.6 -122.7 224.5 -93C237.4 -63.2 248.5 -31.6 259.6 0L0 0Z" fill="#92b7ff"></path><path d="M0 -173.1C23 -171 46 -168.9 66.2 -159.9C86.5 -150.9 104 -134.9 117.7 -117.7C131.3 -100.4 141.1 -81.8 149.7 -62C158.3 -42.2 165.7 -21.1 173.1 0L0 0Z" fill="#539cff"></path><path d="M0 -86.5C11.5 -85.5 23 -84.5 33.1 -79.9C43.2 -75.4 52 -67.5 58.8 -58.8C65.7 -50.2 70.5 -40.9 74.8 -31C79.1 -21.1 82.8 -10.5 86.5 0L0 0Z" fill="#068fff"></path></g></svg>